<svg width="50" height="51" viewBox="0 0 50 51" fill="none" xmlns="http://www.w3.org/2000/svg">
<path fill-rule="evenodd" clip-rule="evenodd" d="M50 22.9333V49.9559H41.1802L41.051 45.3683C35.2085 36.7184 27.9347 25.5363 22.5252 16.1576L40.9778 38.3007C46.4765 22.5919 35.9323 7.10212 15.8503 7.88434C7.28397 24.0706 6.3464 46.6233 34.6452 41.1528L38.4024 47.2755C37.6109 47.7596 36.7833 48.1965 35.9178 48.5832C32.4715 50.1208 28.8275 51 25.0437 51C21.5625 51 18.1686 50.3623 14.9892 48.9279C12.0265 47.59 9.36703 45.7652 7.10083 43.44C2.30153 38.5244 0 32.5233 0 25.6743V25.5C0 18.6158 2.39037 12.6234 7.17074 7.66427C12.0549 2.5366 18.1322 0 25.2181 0C38.4669 0 48.9106 9.85951 50 22.9333Z" fill="#30384B"/>
</svg>
