<svg width="106" height="93" viewBox="0 0 106 93" fill="none" xmlns="http://www.w3.org/2000/svg">
<path fill-rule="evenodd" clip-rule="evenodd" d="M50 64.9333V87.3683H41.051C35.2085 78.7184 27.9347 67.5363 22.5252 58.1576L40.9778 80.3007C46.4765 64.5919 35.9323 49.1021 15.8503 49.8843C7.28397 66.0706 6.3464 88.6233 34.6452 83.1528L38.4024 89.2755C37.6109 89.7596 36.7833 90.1965 35.9178 90.5832C32.4715 92.1208 28.8275 93 25.0437 93C21.5625 93 18.1686 92.3623 14.9892 90.9279C12.0265 89.59 9.36703 87.7652 7.10083 85.4399C2.30153 80.5244 0 74.5233 0 67.6743V67.5C0 60.6158 2.39037 54.6234 7.17074 49.6643C12.0549 44.5366 18.1322 42 25.2181 42C38.4669 42 48.9106 51.8595 50 64.9333Z" fill="#4D9985"/>
<path fill-rule="evenodd" clip-rule="evenodd" d="M106 64.9333V87.3683H97.051C91.2085 78.7184 83.9347 67.5363 78.5252 58.1576L96.9778 80.3007C102.477 64.5919 91.9323 49.1021 71.8503 49.8843C63.284 66.0706 62.3464 88.6233 90.6452 83.1528L94.4024 89.2755C93.6109 89.7596 92.7833 90.1965 91.9178 90.5832C88.4715 92.1208 84.8275 93 81.0437 93C77.5625 93 74.1686 92.3623 70.9892 90.9279C68.0265 89.59 65.367 87.7652 63.1008 85.4399C58.3015 80.5244 56 74.5233 56 67.6743V67.5C56 60.6158 58.3904 54.6234 63.1707 49.6643C68.0549 44.5366 74.1322 42 81.2181 42C94.4669 42 104.911 51.8595 106 64.9333Z" fill="#4D9985"/>
<rect width="10" height="92" fill="#4D9985"/>
<rect x="56" width="10" height="92" fill="#4D9985"/>
</svg>
